# xmcd CD database file
#
# Track frame offsets:
#	183
#	12183
#	24733
#	34633
#	56508
#	74183
#	86658
#	99008
#	116683
#	130283
#	143083
#	157033
#	167608
#	181033
#
# Disc length: 2614 seconds
#
# Revision: 2
# Processed by: cddbd v1.4b41PL1 Copyright (c) Steve Scherf et al.
# Submitted via: Feurio! 1.50.2ß - http://www.feurio.com
#
DISCID=b50a340e
DTITLE=Tom Astor - Meisterstücke
DYEAR=1900
DGENRE=
TTITLE0=Guten Morgen, Deutschland
TTITLE1=Von New York City nach L. A.
TTITLE2=Danke Brummi
TTITLE3=Kameraden der Straße
TTITLE4=Lucille
TTITLE5=Hier riecht's nach Freiheit (Five miles from Houston)
TTITLE6=Verdammte Radarfalle (Lady trucker)
TTITLE7=Mein Freund Charly
TTITLE8=Irgendwo am Horizont
TTITLE9=Bleifuß Joe
TTITLE10=Wer hat ein Herz, das nie bricht
TTITLE11=Highway Helden
TTITLE12=Der kleine Trucker
TTITLE13=Sonntagmorgen
EXTD=
EXTT0=
EXTT1=
EXTT2=
EXTT3=
EXTT4=
EXTT5=
EXTT6=
EXTT7=
EXTT8=
EXTT9=
EXTT10=
EXTT11=
EXTT12=
EXTT13=
PLAYORDER=
